<?xml version="1.0" standalone="no"?>
<!DOCTYPE svg PUBLIC "-//W3C//DTD SVG 20010904//EN"
 "http://www.w3.org/TR/2001/REC-SVG-20010904/DTD/svg10.dtd">
<svg version="1.0" xmlns="http://www.w3.org/2000/svg"
 width="1024.000000pt" height="1024.000000pt" viewBox="0 0 1024.000000 1024.000000"
 preserveAspectRatio="xMidYMid meet">
<metadata>
Created by potrace 1.14, written by Peter Selinger 2001-2017
</metadata>
<g transform="translate(0.000000,1024.000000) scale(0.100000,-0.100000)"
fill="#000000" stroke="none">
<path d="M2040 10234 c-14 -2 -65 -9 -115 -15 -439 -55 -898 -280 -1238 -608
-353 -341 -574 -762 -664 -1266 -17 -95 -18 -269 -18 -3225 0 -2956 1 -3130
18 -3225 86 -478 285 -875 606 -1208 341 -353 762 -574 1266 -664 95 -17 269
-18 3225 -18 2956 0 3130 1 3225 18 478 86 875 285 1208 606 353 341 574 762
664 1266 17 95 18 269 18 3225 0 2956 -1 3130 -18 3225 -90 504 -311 925 -664
1266 -331 320 -720 515 -1203 606 -90 17 -270 18 -3190 19 -1702 1 -3106 0
-3120 -2z m4894 -1664 c43 -11 105 -34 139 -52 75 -40 192 -153 229 -223 35
-66 193 -505 223 -622 44 -168 58 -300 52 -498 -5 -203 -26 -330 -83 -504 -48
-147 -106 -263 -291 -582 l-160 -276 134 -294 c190 -419 201 -447 234 -577 68
-264 44 -563 -63 -817 -19 -44 -263 -478 -544 -964 -464 -806 -515 -891 -574
-950 -164 -166 -407 -203 -621 -96 -318 160 -507 429 -550 777 -19 160 17 361
93 513 17 33 157 278 311 545 164 285 288 510 299 545 27 83 26 200 -2 285
-11 36 -96 214 -188 395 -192 379 -189 375 -301 375 -107 0 -701 -40 -759 -51
-61 -12 -143 -53 -202 -100 -57 -46 -95 -107 -395 -629 -147 -256 -292 -498
-322 -538 -117 -154 -276 -264 -468 -325 -269 -85 -541 -51 -795 98 -148 88
-237 200 -275 345 -22 85 -17 232 12 310 27 74 1021 1795 1089 1885 119 158
308 312 486 394 187 86 285 106 773 152 187 18 345 36 352 41 7 6 76 121 154
256 180 312 209 360 271 441 239 317 563 536 953 646 126 35 567 113 646 114
36 1 101 -8 143 -19z m-3617 -4917 c-4 -16 -14 -62 -24 -103 -26 -114 -24
-403 4 -530 28 -129 222 -670 240 -670 33 0 574 102 633 119 205 60 366 150
533 295 l85 75 7 -57 c10 -84 51 -216 96 -312 l40 -85 -33 -28 c-138 -116
-373 -236 -593 -304 -69 -21 -939 -185 -1033 -195 l-33 -3 -145 400 c-79 220
-160 449 -179 508 -69 210 -97 467 -75 687 6 72 17 128 23 132 7 4 36 8 65 8
69 0 233 33 314 64 82 31 82 31 75 -1z"/>
<path d="M6513 8106 c-333 -62 -461 -109 -654 -238 -102 -68 -252 -210 -320
-303 -49 -68 -232 -376 -226 -382 2 -2 161 12 353 31 382 37 425 37 545 -7 96
-34 154 -71 224 -142 73 -74 95 -115 255 -470 67 -148 125 -273 129 -278 8 -8
162 259 215 373 114 248 142 565 76 845 -21 90 -173 517 -196 553 -25 37 -74
62 -124 61 -25 0 -149 -20 -277 -43z"/>
<path d="M5507 6761 c-257 -26 -469 -50 -471 -52 -13 -13 -435 -753 -432 -756
2 -3 143 5 313 16 381 26 421 26 517 1 110 -28 190 -74 272 -156 70 -69 76
-79 239 -403 91 -183 168 -331 170 -329 2 1 94 160 205 353 111 192 209 362
217 376 15 26 10 38 -182 465 -109 241 -207 452 -218 468 -23 33 -89 66 -132
65 -16 -1 -240 -22 -498 -48z"/>
<path d="M4245 6635 c-237 -25 -303 -40 -411 -90 -104 -47 -187 -109 -275
-203 -68 -73 -112 -145 -576 -949 -276 -478 -505 -881 -508 -895 -11 -45 18
-83 98 -127 91 -50 169 -71 267 -71 90 0 153 16 240 60 136 69 123 50 789
1206 333 577 611 1059 619 1072 17 27 37 27 -243 -3z"/>
<path d="M6732 5273 c-462 -792 -1200 -2082 -1215 -2123 -28 -75 -30 -241 -3
-320 41 -122 122 -221 241 -295 82 -51 121 -57 159 -23 31 29 988 1686 1032
1788 44 101 64 207 64 338 0 154 -27 251 -139 496 -51 110 -93 202 -95 204 -2
2 -22 -27 -44 -65z"/>
</g>
</svg>
